<svg width="1199" height="302" viewBox="0 0 1199 302" fill="none" xmlns="http://www.w3.org/2000/svg">
<path d="M2.176 26.84H78.208V46.68H77.696C77.5253 46.5947 76.032 45.0587 73.216 42.072C70.4 39.0854 67.4987 36.6107 64.512 34.648C61.6107 32.6854 58.7947 31.704 56.064 31.704H47.232V100.44C47.232 104.28 48.1707 110.339 50.048 118.616V119H30.464V118.616C32.256 110.765 33.152 104.707 33.152 100.44V31.704H24.32C21.5893 31.704 18.7307 32.6854 15.744 34.648C12.8427 36.6107 9.984 39.0854 7.168 42.072C4.352 45.0587 2.85867 46.5947 2.688 46.68H2.176V26.84ZM85.117 26.456V25.944L101.501 23.768V65.752C107.389 58.2427 114.301 54.488 122.237 54.488C128.125 54.488 133.074 56.28 137.085 59.864C141.096 63.448 143.101 68.9094 143.101 76.248V100.44C143.101 104.28 144.04 110.339 145.917 118.616V119H127.101V118.616C128.978 110.339 129.917 104.28 129.917 100.44V77.912C129.917 73.048 128.637 69.3787 126.077 66.904C123.517 64.4294 120.274 63.192 116.349 63.192C111.4 63.192 106.45 65.3254 101.501 69.592V100.44C101.501 104.28 102.44 110.339 104.317 118.616V119H85.501V118.616C87.3783 110.339 88.317 104.28 88.317 100.44V44.12C88.317 37.72 87.2503 31.832 85.117 26.456ZM162.529 63.448C168.161 57.4747 175.372 54.488 184.161 54.488C192.865 54.488 199.606 57.3894 204.385 63.192C209.249 68.9094 211.681 76.248 211.681 85.208H168.417C168.758 92.9734 170.764 99.2027 174.433 103.896C178.102 108.589 183.265 110.936 189.921 110.936C197.174 110.936 204.214 107.821 211.041 101.592L211.425 101.976C209.206 107.181 205.708 111.491 200.929 114.904C196.15 118.317 190.604 120.024 184.289 120.024C175.841 120.024 168.673 117.08 162.785 111.192C156.897 105.219 153.953 97.1974 153.953 87.128C153.953 77.3147 156.812 69.4214 162.529 63.448ZM168.417 81.88L197.985 79.704C197.814 73.4747 196.534 68.4827 194.145 64.728C191.841 60.888 188.47 58.968 184.033 58.968C179.084 58.968 175.286 61.144 172.641 65.496C169.996 69.7627 168.588 75.224 168.417 81.88ZM261.771 39.128C270.475 30.0827 281.056 25.56 293.515 25.56C303.072 25.56 313.142 27.9067 323.723 32.6V50.904H322.827C319.584 46.1254 315.403 41.6027 310.283 37.336C305.163 32.984 299.616 30.7654 293.643 30.68C293.558 30.68 293.472 30.68 293.387 30.68C285.024 30.68 278.155 34.6054 272.779 42.456C267.488 50.2214 264.843 60.3334 264.843 72.792C264.843 85.336 267.616 95.576 273.163 103.512C278.795 111.363 285.75 115.331 294.027 115.416C299.83 115.416 305.803 113.581 311.947 109.912V92.632C311.947 91.4374 311.819 90.2 311.563 88.92C311.307 87.5547 311.008 86.36 310.667 85.336C310.411 84.2267 309.984 83.032 309.387 81.752C308.875 80.472 308.448 79.5334 308.107 78.936C307.766 78.2534 307.339 77.4 306.827 76.376L305.931 74.584V74.2H329.611V74.584C327.222 82.0934 326.027 88.1094 326.027 92.632V111.96C313.227 117.677 301.963 120.536 292.235 120.536C280.203 120.536 269.92 116.056 261.387 107.096C252.939 98.0507 248.715 86.7014 248.715 73.048C248.715 59.5654 253.067 48.2587 261.771 39.128ZM337.221 100.824C337.221 93.656 340.08 88.4507 345.797 85.208C351.514 81.88 357.488 80.216 363.717 80.216C366.021 80.216 368.453 80.4294 371.013 80.856C373.744 81.2827 375.749 81.7094 377.029 82.136V73.944C377.029 69.2507 376.048 65.624 374.085 63.064C372.122 60.504 369.605 59.224 366.533 59.224C362.949 59.224 358.426 61.1014 352.965 64.856C347.589 68.6107 343.877 71.8534 341.829 74.584H341.445V59.608C350.832 56.1947 359.408 54.488 367.173 54.488C374.512 54.488 380.186 56.28 384.197 59.864C388.293 63.3627 390.341 68.184 390.341 74.328V105.432C390.341 110.296 391.92 112.728 395.077 112.728C396.101 112.728 397.253 112.515 398.533 112.088L398.661 112.472C397.04 117.165 393.584 119.512 388.293 119.512C382.064 119.512 378.394 116.44 377.285 110.296C372.421 116.781 365.893 120.024 357.701 120.024C351.386 120.024 346.394 118.147 342.725 114.392C339.056 110.552 337.221 106.029 337.221 100.824ZM351.173 99.288C351.173 103.128 352.453 106.328 355.013 108.888C357.573 111.363 360.688 112.6 364.357 112.6C369.136 112.6 373.36 110.381 377.029 105.944V85.848C376.346 85.848 375.792 85.8054 375.365 85.72C372.976 85.2934 370.714 85.08 368.581 85.08C364.229 85.08 360.218 86.2747 356.549 88.664C352.965 90.968 351.173 94.5094 351.173 99.288ZM399.539 56.28C404.83 54.5734 409.096 52.0987 412.339 48.856C415.582 45.528 418.398 41.3894 420.787 36.44H422.067V55.256H439.859V60.12H422.067L422.195 100.312C422.195 107.48 425.267 111.064 431.411 111.064C435.166 111.064 438.963 109.827 442.803 107.352C441.096 111.107 438.622 114.179 435.379 116.568C432.222 118.872 428.552 120.024 424.371 120.024C419.422 120.024 415.582 118.403 412.851 115.16C410.206 111.917 408.883 107.523 408.883 101.976V60.12H399.539V56.28ZM446.164 56.28C451.455 54.5734 455.721 52.0987 458.964 48.856C462.207 45.528 465.023 41.3894 467.412 36.44H468.692V55.256H486.484V60.12H468.692L468.82 100.312C468.82 107.48 471.892 111.064 478.036 111.064C481.791 111.064 485.588 109.827 489.428 107.352C487.721 111.107 485.247 114.179 482.004 116.568C478.847 118.872 475.177 120.024 470.996 120.024C466.047 120.024 462.207 118.403 459.476 115.16C456.831 111.917 455.508 107.523 455.508 101.976V60.12H446.164V56.28ZM495.221 100.824C495.221 93.656 498.08 88.4507 503.797 85.208C509.514 81.88 515.488 80.216 521.717 80.216C524.021 80.216 526.453 80.4294 529.013 80.856C531.744 81.2827 533.749 81.7094 535.029 82.136V73.944C535.029 69.2507 534.048 65.624 532.085 63.064C530.122 60.504 527.605 59.224 524.533 59.224C520.949 59.224 516.426 61.1014 510.965 64.856C505.589 68.6107 501.877 71.8534 499.829 74.584H499.445V59.608C508.832 56.1947 517.408 54.488 525.173 54.488C532.512 54.488 538.186 56.28 542.197 59.864C546.293 63.3627 548.341 68.184 548.341 74.328V105.432C548.341 110.296 549.92 112.728 553.077 112.728C554.101 112.728 555.253 112.515 556.533 112.088L556.661 112.472C555.04 117.165 551.584 119.512 546.293 119.512C540.064 119.512 536.394 116.44 535.285 110.296C530.421 116.781 523.893 120.024 515.701 120.024C509.386 120.024 504.394 118.147 500.725 114.392C497.056 110.552 495.221 106.029 495.221 100.824ZM509.173 99.288C509.173 103.128 510.453 106.328 513.013 108.888C515.573 111.363 518.688 112.6 522.357 112.6C527.136 112.6 531.36 110.381 535.029 105.944V85.848C534.346 85.848 533.792 85.8054 533.365 85.72C530.976 85.2934 528.714 85.08 526.581 85.08C522.229 85.08 518.218 86.2747 514.549 88.664C510.965 90.968 509.173 94.5094 509.173 99.288ZM564.144 55.64V55.256H580.016V100.44C580.016 102.232 580.144 104.152 580.4 106.2C580.656 108.248 580.912 109.955 581.168 111.32C581.424 112.685 581.723 114.179 582.064 115.8C582.405 117.336 582.619 118.275 582.704 118.616V119H564.144V118.616C565.936 110.765 566.832 104.707 566.832 100.44L566.96 73.816C566.96 69.976 566.021 63.9174 564.144 55.64ZM563.632 32.6C563.632 30.04 564.528 27.9067 566.32 26.2C568.112 24.408 570.288 23.512 572.848 23.512C575.408 23.512 577.584 24.408 579.376 26.2C581.168 27.9067 582.064 30.04 582.064 32.6C582.064 35.0747 581.168 37.1654 579.376 38.872C577.499 40.664 575.323 41.56 572.848 41.56C570.373 41.56 568.197 40.7067 566.32 39C564.528 37.208 563.632 35.0747 563.632 32.6Z" fill="#353F59"/>
<path d="M799.064 238.44V183.4C799.064 179.133 798.168 173.075 796.376 165.224V164.84H833.24C842.029 164.84 849.197 167.528 854.744 172.904C860.376 178.28 863.192 184.936 863.192 192.872C863.192 201.491 859.907 208.403 853.336 213.608C846.851 218.728 838.915 221.288 829.528 221.288H813.272V238.44C813.272 240.232 813.4 242.152 813.656 244.2C813.912 246.248 814.168 247.955 814.424 249.32C814.68 250.685 814.979 252.179 815.32 253.8C815.661 255.336 815.875 256.275 815.96 256.616V257H796.376V256.616C798.168 248.765 799.064 242.707 799.064 238.44ZM813.272 216.168H827.992C834.221 216.168 839.171 213.907 842.84 209.384C846.509 204.861 848.344 199.357 848.344 192.872C848.344 186.643 846.595 181.267 843.096 176.744C839.683 172.221 834.904 169.96 828.76 169.96H813.272V216.168ZM871.745 193.64V193.256H887.745V204.136C890.39 199.443 893.462 196.243 896.961 194.536C900.545 192.829 903.788 191.976 906.689 191.976C908.908 191.976 911.212 192.36 913.601 193.128L911.553 207.976H911.041C908.908 206.099 906.817 204.776 904.769 204.008C902.721 203.24 900.801 202.856 899.009 202.856C897.985 202.856 896.449 203.027 894.401 203.368C892.438 203.709 890.22 205.075 887.745 207.464V238.44C887.745 242.707 888.641 248.765 890.433 256.616V257H871.745V256.616C873.537 248.765 874.433 242.707 874.433 238.44V211.816C874.433 207.549 873.537 201.491 871.745 193.64ZM917.328 225C917.328 214.931 920.315 206.995 926.288 201.192C932.347 195.389 939.856 192.488 948.816 192.488C957.861 192.488 965.413 195.432 971.472 201.32C977.531 207.123 980.56 215.016 980.56 225C980.56 235.069 977.531 243.091 971.472 249.064C965.328 255.037 957.776 258.024 948.816 258.024C939.856 258.024 932.347 255.08 926.288 249.192C920.315 243.219 917.328 235.155 917.328 225ZM932.176 225C932.176 232.936 933.669 239.677 936.656 245.224C939.557 250.771 943.611 253.544 948.816 253.544C954.021 253.544 958.117 250.771 961.104 245.224C964.176 239.677 965.712 232.936 965.712 225C965.712 217.149 964.176 210.536 961.104 205.16C958.117 199.699 954.021 196.968 948.816 196.968C943.611 196.968 939.515 199.656 936.528 205.032C933.627 210.408 932.176 217.064 932.176 225ZM989.388 265.832C991.265 260.285 992.204 253.459 992.204 245.352V211.816C992.204 207.549 991.308 201.491 989.516 193.64V193.256H1005.39V245.352C1005.39 257.043 1002.87 265.576 997.836 270.952C992.887 276.328 986.401 279.315 978.38 279.912L978.124 279.656C983.756 275.987 987.511 271.379 989.388 265.832ZM991.436 164.072C993.228 162.365 995.404 161.512 997.964 161.512C1000.44 161.512 1002.57 162.408 1004.36 164.2C1006.16 165.907 1007.05 168.04 1007.05 170.6C1007.05 173.075 1006.16 175.165 1004.36 176.872C1002.57 178.664 1000.44 179.56 997.964 179.56C995.489 179.56 993.313 178.707 991.436 177C989.644 175.208 988.748 173.075 988.748 170.6C988.748 168.04 989.644 165.864 991.436 164.072ZM1025.03 201.448C1030.66 195.475 1037.87 192.488 1046.66 192.488C1055.37 192.488 1062.11 195.389 1066.89 201.192C1071.75 206.909 1074.18 214.248 1074.18 223.208H1030.92C1031.26 230.973 1033.26 237.203 1036.93 241.896C1040.6 246.589 1045.77 248.936 1052.42 248.936C1059.67 248.936 1066.71 245.821 1073.54 239.592L1073.93 239.976C1071.71 245.181 1068.21 249.491 1063.43 252.904C1058.65 256.317 1053.1 258.024 1046.79 258.024C1038.34 258.024 1031.17 255.08 1025.29 249.192C1019.4 243.219 1016.45 235.197 1016.45 225.128C1016.45 215.315 1019.31 207.421 1025.03 201.448ZM1030.92 219.88L1060.49 217.704C1060.31 211.475 1059.03 206.483 1056.65 202.728C1054.34 198.888 1050.97 196.968 1046.53 196.968C1041.58 196.968 1037.79 199.144 1035.14 203.496C1032.5 207.763 1031.09 213.224 1030.92 219.88ZM1090.9 201.192C1096.54 195.389 1103.92 192.488 1113.05 192.488C1119.7 192.488 1127.21 194.536 1135.58 198.632L1135.83 214.632H1135.19C1128.19 202.856 1120.9 196.968 1113.3 196.968C1108.01 196.968 1103.92 199.357 1101.02 204.136C1098.2 208.915 1096.79 214.845 1096.79 221.928C1096.88 230.12 1098.8 236.691 1102.55 241.64C1106.31 246.504 1111.55 248.936 1118.3 248.936C1125.29 248.936 1131.99 246.12 1138.39 240.488L1138.78 240.744C1136.47 245.864 1133.02 250.045 1128.41 253.288C1123.89 256.445 1118.59 258.024 1112.54 258.024C1104.17 258.024 1097.05 255.123 1091.16 249.32C1085.27 243.432 1082.33 235.368 1082.33 225.128C1082.33 214.973 1085.19 206.995 1090.9 201.192ZM1144.16 194.28C1149.45 192.573 1153.72 190.099 1156.96 186.856C1160.21 183.528 1163.02 179.389 1165.41 174.44H1166.69V193.256H1184.48V198.12H1166.69L1166.82 238.312C1166.82 245.48 1169.89 249.064 1176.04 249.064C1179.79 249.064 1183.59 247.827 1187.43 245.352C1185.72 249.107 1183.25 252.179 1180 254.568C1176.85 256.872 1173.18 258.024 1169 258.024C1164.05 258.024 1160.21 256.403 1157.48 253.16C1154.83 249.917 1153.51 245.523 1153.51 239.976V198.12H1144.16V194.28Z" fill="#353F59"/>
<path d="M1186.95 114.368C1186.77 116.445 1184.98 118.6 1181.05 120.705C1177.17 122.781 1171.49 124.654 1164.15 126.292C1149.47 129.566 1128.4 131.851 1102.43 133.063C1050.51 135.487 979.206 133.614 900.825 126.864C822.445 120.114 751.869 109.768 701.129 98.5036C675.752 92.8699 655.377 87.015 641.477 81.2807C634.521 78.4107 629.244 75.5939 625.779 72.8856C622.265 70.1395 620.868 67.7102 621.047 65.6325C621.226 63.5547 623.018 61.3999 626.949 59.295C630.826 57.2191 636.507 55.3459 643.852 53.7076C658.527 50.4341 679.603 48.1489 705.57 46.9368C757.488 44.5134 828.794 46.3864 907.175 53.1365C985.555 59.8865 1056.13 70.2322 1106.87 81.4964C1132.25 87.1302 1152.62 92.9851 1166.52 98.7194C1173.48 101.589 1178.76 104.406 1182.22 107.114C1185.74 109.861 1187.13 112.29 1186.95 114.368Z" stroke="#353F59" stroke-width="2"/>
<path d="M1193.52 37.8543C1193.77 39.9254 1192.45 42.3979 1189.03 45.2545C1185.65 48.0717 1180.46 51.0551 1173.6 54.1451C1159.89 60.3191 1139.71 66.8197 1114.53 73.2586C1064.17 86.1326 993.963 98.7202 915.837 107.962C837.712 117.205 766.501 121.347 714.532 120.578C688.54 120.193 667.402 118.58 652.63 115.776C645.237 114.372 639.499 112.681 635.558 110.729C631.561 108.75 629.702 106.654 629.457 104.583C629.212 102.512 630.531 100.039 633.955 97.1826C637.332 94.3655 642.517 91.3821 649.379 88.292C663.089 82.1181 683.267 75.6174 708.452 69.1786C758.807 56.3045 829.018 43.717 907.144 34.4748C985.27 25.2326 1056.48 21.0901 1108.45 21.8593C1134.44 22.244 1155.58 23.857 1170.35 26.6616C1177.74 28.0653 1183.48 29.7566 1187.42 31.708C1191.42 33.6867 1193.28 35.7833 1193.52 37.8543Z" stroke="#353F59" stroke-width="2"/>
<path d="M758.707 223.707C759.098 223.317 759.098 222.683 758.707 222.293L752.343 215.929C751.953 215.538 751.319 215.538 750.929 215.929C750.538 216.319 750.538 216.953 750.929 217.343L756.586 223L750.929 228.657C750.538 229.047 750.538 229.681 750.929 230.071C751.319 230.462 751.953 230.462 752.343 230.071L758.707 223.707ZM14 224L758 224V222L14 222V224Z" fill="#353F59"/>
</svg>
